<?xml version="1.0"?>
<svg xmlns="http://www.w3.org/2000/svg" viewBox="0 0 64 64" width="512px" height="512px"><g><g id="Location_delivery" data-name="Location delivery"><path d="M55,5a1,1,0,0,0-1-1H39V25a1,1,0,0,1-1.555.832L32,22.2l-5.445,3.63A1,1,0,0,1,25,25V4H10A1,1,0,0,0,9,5V50H22.026C20.287,47.166,19,44.3,19,42a13,13,0,0,1,26,0c0,2.3-1.287,5.166-3.026,8H55Z" data-original="#000000" class="active-path" data-old_color="#000000" fill="#FFFFFF"/><circle cx="32" cy="42" r="4" data-original="#000000" class="active-path" data-old_color="#000000" fill="#FFFFFF"/><path d="M31.445,20.168a1,1,0,0,1,1.11,0L37,23.131V4H27V23.131Z" data-original="#000000" class="active-path" data-old_color="#000000" fill="#FFFFFF"/><path d="M32,31A11.013,11.013,0,0,0,21,42c0,4.764,7.367,13.651,11,17.548C35.632,55.65,43,46.761,43,42A11.013,11.013,0,0,0,32,31Zm0,17a6,6,0,1,1,6-6A6.006,6.006,0,0,1,32,48Z" data-original="#000000" class="active-path" data-old_color="#000000" fill="#FFFFFF"/></g></g> </svg>
