<?xml version="1.0"?>
<svg xmlns="http://www.w3.org/2000/svg" height="512px" viewBox="0 -1 427.521 427" width="512px"><g><path d="m289.699219 200.078125c.136719-2.652344.1875-4.9375.253906-7.9375h-96.265625v47.515625c10.152344.304688 20.261719 1.382812 30.25 3.226562 16.605469-21.125 39.722656-36.171874 65.761719-42.804687zm0 0" data-original="#000000" class="active-path" data-old_color="#000000" fill="#FFFFFF"/><path d="m86.488281 87.496094c13.921875-35.371094 35.773438-64.765625 64.171875-85.667969-38.472656 7.5625-73.582031 27.050781-100.347656 55.699219 10.746094 11.476562 22.902344 21.546875 36.175781 29.96875zm0 0" data-original="#000000" class="active-path" data-old_color="#000000" fill="#FFFFFF"/><path d="m81.652344 101.042969c-14.894532-9.117188-28.53125-20.144531-40.5625-32.800781-25.289063 31.1875-39.710938 69.773437-41.089844 109.898437h69.078125c.625-28 4.9375-53.519531 12.574219-77.097656zm0 0" data-original="#000000" class="active-path" data-old_color="#000000" fill="#FFFFFF"/><path d="m279.0625 108.289062c-26.433594 13.691407-55.617188 21.246094-85.375 22.101563v47.75h96.273438c-.398438-23.671875-4.0625-47.179687-10.898438-69.851563zm0 0" data-original="#000000" class="active-path" data-old_color="#000000" fill="#FFFFFF"/><path d="m303.789062 197.371094c5.257813-.710938 10.554688-1.078125 15.859376-1.101563 18.035156.003907 35.84375 4.03125 52.125 11.789063.648437-5.292969 1.074218-10.914063 1.273437-15.914063h-69.089844c-.042969 1.996094-.097656 3.464844-.167969 5.226563zm0 0" data-original="#000000" class="active-path" data-old_color="#000000" fill="#FFFFFF"/><path d="m193.6875.261719v116.117187c28.234375-.957031 55.878906-8.324218 80.84375-21.546875-16.042969-42.089843-43.84375-75.207031-80.84375-94.570312zm0 0" data-original="#000000" class="active-path" data-old_color="#000000" fill="#FFFFFF"/><path d="m69.078125 192.140625h-69.078125c1.554688 40.066406 15.960938 78.570313 41.089844 109.8125 12.03125-12.65625 25.667968-23.683594 40.5625-32.796875-7.640625-23.582031-11.949219-50.015625-12.574219-77.015625zm0 0" data-original="#000000" class="active-path" data-old_color="#000000" fill="#FFFFFF"/><path d="m303.960938 178.140625h69.082031c-1.375-40.121094-15.792969-78.703125-41.066407-109.898437-11.992187 12.746093-25.621093 23.847656-40.527343 33.019531 7.601562 23.527343 11.890625 48.878906 12.511719 76.878906zm0 0" data-original="#000000" class="active-path" data-old_color="#000000" fill="#FFFFFF"/><path d="m286.625 87.679688c13.28125-8.457032 25.421875-18.582032 36.128906-30.125-26.769531-28.664063-61.890625-48.160157-100.371094-55.726563 28.445313 20.9375 50.324219 50.402344 64.242188 85.851563zm0 0" data-original="#000000" class="active-path" data-old_color="#000000" fill="#FFFFFF"/><path d="m179.6875 369.796875v-116.09375c-28.230469.957031-55.863281 8.386719-80.769531 21.710937 16.0625 42 43.769531 75.042969 80.769531 94.382813zm0 0" data-original="#000000" class="active-path" data-old_color="#000000" fill="#FFFFFF"/><path d="m319.648438 238.464844c-44.007813 0-79.6875 35.675781-79.6875 79.6875 0 44.007812 35.679687 79.683594 79.6875 79.683594 44.007812 0 79.6875-35.675782 79.6875-79.683594-.050782-43.988282-35.699219-79.636719-79.6875-79.6875zm33.738281 93.675781h-38.558594c-1.84375.058594-3.636719-.621094-4.976563-1.890625-1.34375-1.269531-2.121093-3.023438-2.164062-4.867188v-50.601562c0-3.867188 3.132812-7 7-7s7 3.132812 7 7v43.359375h31.699219c3.867187 0 7 3.136719 7 7 0 3.867187-3.132813 7-7 7zm0 0" data-original="#000000" class="active-path" data-old_color="#000000" fill="#FFFFFF"/><path d="m215.167969 255.617188c-7.117188-1.070313-14.289063-1.722657-21.480469-1.953126v116.132813c4-2.257813 8.433594-4.710937 12.511719-7.34375-13.699219-35.082031-10.390625-74.53125 8.96875-106.835937zm0 0" data-original="#000000" class="active-path" data-old_color="#000000" fill="#FFFFFF"/><path d="m86.488281 282.550781c-13.273437 8.421875-25.429687 18.488281-36.175781 29.960938 26.761719 28.648437 61.867188 48.136719 100.335938 55.699219-28.398438-20.902344-50.242188-50.296876-64.160157-85.660157zm0 0" data-original="#000000" class="active-path" data-old_color="#000000" fill="#FFFFFF"/><path d="m319.648438 210.277344c-59.574219 0-107.871094 48.296875-107.871094 107.875 0 59.574218 48.296875 107.871094 107.871094 107.871094 59.578124 0 107.871093-48.296876 107.871093-107.871094-.066406-59.550782-48.324219-107.804688-107.871093-107.875zm0 201.558594c-51.742188 0-93.6875-41.941407-93.6875-93.683594 0-51.742188 41.945312-93.6875 93.6875-93.6875 51.742187 0 93.6875 41.945312 93.6875 93.6875-.058594 51.71875-41.96875 93.628906-93.6875 93.6875zm0 0" data-original="#000000" class="active-path" data-old_color="#000000" fill="#FFFFFF"/><path d="m83.089844 178.140625h96.597656v-47.785156c-29.792969-.980469-58.992188-8.585938-85.480469-22.265625-6.921875 22.726562-10.664062 46.300781-11.117187 70.050781zm0 0" data-original="#000000" class="active-path" data-old_color="#000000" fill="#FFFFFF"/><path d="m94.207031 262.074219c26.480469-13.710938 55.679688-21.359375 85.480469-22.382813v-47.550781h-96.605469c.453125 23.714844 4.199219 47.25 11.125 69.933594zm0 0" data-original="#000000" class="active-path" data-old_color="#000000" fill="#FFFFFF"/><path d="m98.921875 94.632812c24.902344 13.328126 52.535156 20.753907 80.765625 21.707032v-116.078125c-37 19.332031-64.707031 52.371093-80.765625 94.371093zm0 0" data-original="#000000" class="active-path" data-old_color="#000000" fill="#FFFFFF"/></g> </svg>
