<?xml version="1.0"?>
<svg xmlns="http://www.w3.org/2000/svg" id="Capa_1" enable-background="new 0 0 508 508" height="512px" viewBox="0 0 508 508" width="512px"><g><g><path d="m508 125c0-58.448-47.551-106-106-106-49.895 0-91.848 34.652-103.059 81.153-14.669-3.422-29.739-5.153-44.941-5.153s-30.272 1.731-44.941 5.153c-11.211-46.501-53.164-81.153-103.059-81.153-58.449 0-106 47.552-106 106 0 45.416 28.71 84.253 68.935 99.314-10.728 29.215-14.524 60.693-10.345 92.826 1.728 13.284 21.528 10.77 19.84-2.52-.529-4.166-.914-8.385-1.15-12.62h72.611c1.118 29.877 7.317 59.415 18.365 87.446-15.926 5.398-31.362 12.307-46.093 20.666-4.75-5.298-9.206-10.911-13.333-16.822-7.633-10.933-24.037.52-16.4 11.45 35.595 50.947 94.704 84.26 161.57 84.26 108.8 0 197-88.2 197-197 0-23.781-4.215-46.578-11.936-67.686 40.225-15.06 68.936-53.897 68.936-99.314zm-244-9.721c10.863.606 21.609 2.198 32.115 4.761-1.373 22.799 5.876 45.079 16.219 61.44-15.92 3.871-32.105 6.136-48.333 6.795v-72.996zm0 93.013c18.921-.711 37.79-3.442 56.309-8.19 10.721 26.519 16.518 54.222 17.636 81.898h-73.945zm121.837 201.819c-14.733-8.361-30.172-15.27-46.1-20.668 10.923-27.931 17.082-57.519 18.213-87.443h72.774c-2.231 40.293-17.92 78.069-44.887 108.111zm-14.788 14.672c-21.887 19.337-47.798 32.746-75.751 39.398 14.649-17.377 26.837-36.35 36.459-56.387 13.428 4.473 26.575 10.136 39.292 16.989zm-107.049-122.783h73.94c-1.142 27.99-7.04 55.651-17.441 81.719-18.421-4.735-37.359-7.504-56.499-8.22zm0 93.376c16.209.66 32.369 2.927 48.247 6.799-12.055 24.245-28.212 46.74-48.247 66.361zm-20-113.376h-74.056c1.143-27.594 6.991-55.247 17.753-81.896 18.518 4.748 37.384 7.477 56.303 8.188zm0 20v73.499c-19.13.716-38.057 3.483-56.469 8.213-10.518-26.169-16.455-53.778-17.593-81.712zm0 93.376v73.341c-.093-.005-.187-.011-.28-.016-19.881-20.035-35.908-42.528-47.895-66.543 15.855-3.862 31.991-6.123 48.175-6.782zm-32.115-275.336c10.506-2.563 21.252-4.156 32.115-4.761v72.997c-16.229-.659-32.414-2.924-48.334-6.795 10.343-16.362 17.528-38.126 16.219-61.441zm-61.984 161.96h-72.626c.997-18.064 4.704-35.648 11.065-52.471 5.745.967 11.645 1.471 17.66 1.471 20.153 0 39.01-5.653 55.069-15.457-6.618 21.878-10.309 44.19-11.168 66.457zm-43.901-71c-47.42 0-86-38.579-86-86s38.58-86 86-86c20.115 0 38.639 6.942 53.302 18.555l-53.302 53.302-17.711-17.711c-3.905-3.904-10.237-3.904-14.143 0-3.905 3.905-3.905 10.237 0 14.143l24.782 24.782c3.839 3.839 10.078 4.064 14.143 0l60.374-60.373c11.613 14.664 18.555 33.187 18.555 53.302 0 47.421-38.58 86-86 86zm70.281 196.781c9.574 19.839 21.681 38.748 36.232 56.279-27.974-6.756-53.936-20.25-75.551-39.283 12.724-6.856 25.881-12.521 39.319-16.996zm254.444-125.781h-72.769c-.831-22.313-4.475-44.649-11.039-66.466 16.062 9.809 34.924 15.466 55.083 15.466 6.018 0 11.919-.504 17.666-1.473 6.355 16.824 10.062 34.409 11.059 52.473zm-28.725-71c-47.42 0-86-38.579-86-86s38.58-86 86-86c20.115 0 38.639 6.942 53.303 18.556l-60.374 60.373c-1.875 1.876-2.929 4.419-2.929 7.071v35.048c0 5.522 4.477 10 10 10s10-4.478 10-10v-30.905l57.445-57.445c11.613 14.663 18.555 33.187 18.555 53.302 0 47.421-38.58 86-86 86zm-312.486 148.412c0 5.522-4.477 9.999-9.999 9.999s-9.999-4.477-9.999-9.999 4.477-9.999 9.999-9.999 9.999 4.476 9.999 9.999z" data-original="#000000" class="active-path" data-old_color="#000000" fill="#FFFFFF"/></g></g> </svg>
